<?xml version="1.0" standalone="no"?>
<!DOCTYPE svg PUBLIC "-//W3C//DTD SVG 20010904//EN"
 "http://www.w3.org/TR/2001/REC-SVG-20010904/DTD/svg10.dtd">
<svg version="1.0" xmlns="http://www.w3.org/2000/svg"
 width="300.000000pt" height="300.000000pt" viewBox="0 0 300.000000 300.000000"
 preserveAspectRatio="xMidYMid meet">
<metadata>
Created by potrace 1.11, written by Peter Selinger 2001-2013
</metadata>
<g transform="translate(0.000000,300.000000) scale(0.100000,-0.100000)"
fill="#000000" stroke="none">
<path d="M1326 2840 c-218 -28 -452 -122 -631 -255 -80 -59 -221 -200 -276
-275 -111 -152 -204 -355 -242 -530 -30 -136 -30 -424 0 -560 38 -175 131
-378 241 -529 55 -74 197 -216 277 -276 142 -106 351 -201 525 -238 129 -28
413 -30 545 -3 343 68 669 289 862 584 99 150 174 336 204 502 18 98 18 382 0
480 -63 353 -286 689 -586 885 -147 97 -323 170 -475 200 -100 19 -346 28
-444 15z m914 -849 c75 -28 124 -71 156 -137 50 -102 18 -204 -88 -283 l-47
-35 39 -17 c64 -29 127 -94 146 -151 21 -64 15 -158 -14 -213 -24 -47 -83
-106 -130 -130 -116 -58 -368 -58 -484 0 -65 33 -116 95 -148 180 -9 24 -7 25
78 51 48 15 92 29 99 31 7 3 18 -10 26 -29 33 -78 114 -116 228 -105 71 6 121
35 143 81 23 50 20 90 -10 126 -39 45 -78 61 -166 67 l-78 6 0 73 0 74 38 0
c136 0 227 103 177 199 -35 69 -185 95 -253 44 -24 -18 -66 -70 -74 -93 -3 -8
-183 32 -195 43 -10 10 36 95 73 136 73 82 167 112 324 107 75 -3 121 -10 160
-25z m-1355 -3 c2 -7 41 -160 87 -340 l83 -327 86 337 86 337 161 3 162 2 0
-500 0 -500 -95 0 -95 0 -1 398 0 397 -99 -395 c-55 -217 -99 -396 -100 -398
0 -1 -48 -1 -106 0 l-107 3 -96 392 -96 391 -3 -394 -2 -394 -95 0 -95 0 0
500 0 500 160 0 c120 0 162 -3 165 -12z"/>
</g>
</svg>
